<svg xmlns="http://www.w3.org/2000/svg" viewBox="0 0 100 100">
    <circle cx="50" cy="50" r="45" fill="#FFFFFF" stroke="#C8362B" stroke-width="9"/>
    <g transform="translate(-6 0)">
  <path d="M14 8 h30 l6 8 h6 a4 4 0 0 1 4 4 v6 h-54 v-6 a4 4 0 0 1 4 -4 h4 z" fill="#C8362B"/>
  <circle cx="20" cy="26" r="4" fill="#FFFFFF"/>
  <circle cx="52" cy="26" r="4" fill="#FFFFFF"/>
</g><g transform="translate(20 0)">
  <path d="M14 8 h30 l6 8 h6 a4 4 0 0 1 4 4 v6 h-54 v-6 a4 4 0 0 1 4 -4 h4 z" fill="#1B1E24"/>
  <circle cx="20" cy="26" r="4" fill="#FFFFFF"/>
  <circle cx="52" cy="26" r="4" fill="#FFFFFF"/>
</g><line x1="18" y1="20" x2="82" y2="80" stroke="#C8362B" stroke-width="7"/>
  </svg>
